<svg width="30" height="30" viewBox="0 0 30 30" fill="none" xmlns="http://www.w3.org/2000/svg">
<path d="M29.6667 21.6666C29.6667 26.0799 26.08 29.6666 21.6667 29.6666V27.6666C25 27.6666 27.6667 24.9999 27.6667 21.6666H29.6667ZM0.333327 8.33325C0.333327 3.91992 3.91999 0.333252 8.33333 0.333252V2.33325C4.99999 2.33325 2.33333 4.99992 2.33333 8.33325H0.333327ZM9.66666 4.75992L3.54666 10.8933C-0.746673 15.1866 -0.746673 22.1599 3.54666 26.4533C7.83999 30.7466 14.8133 30.7466 19.1067 26.4533L28.5333 16.9999C29.1867 16.3733 29.1867 15.3199 28.5333 14.6666C28.3785 14.5114 28.1946 14.3882 27.9921 14.3042C27.7896 14.2202 27.5725 14.1769 27.3533 14.1769C27.1341 14.1769 26.917 14.2202 26.7145 14.3042C26.5121 14.3882 26.3281 14.5114 26.1733 14.6666L20.28 20.5599L19.3333 19.6133L28.0533 10.8933C28.7067 10.2399 28.7067 9.18659 28.0533 8.53325C27.4 7.87992 26.3333 7.87992 25.6667 8.53325L17.92 16.3333L17 15.3599L26.16 6.17325C26.8133 5.51992 26.8133 4.46659 26.16 3.81325C25.5067 3.15992 24.4533 3.15992 23.8 3.81325L14.6133 12.9999L13.6667 12.0666L21 4.75992C21.6667 4.10659 21.6667 3.05325 21 2.39992C20.3333 1.74659 19.2933 1.74659 18.64 2.39992L8.47999 12.5599C9.27552 13.5861 9.66969 14.8671 9.5887 16.163C9.5077 17.4589 8.9571 18.6808 8.03999 19.5999L7.09333 18.6533C7.8424 17.9032 8.26314 16.8866 8.26314 15.8266C8.26314 14.7666 7.8424 13.7499 7.09333 12.9999L6.62666 12.5333L12.0533 7.10659C12.7067 6.45325 12.7067 5.39992 12.0533 4.74659C11.3867 4.10659 10.3333 4.10659 9.66666 4.75992Z" fill="#FFD233"/>
</svg>
